<?xml version="1.0" encoding="UTF-8"?>
<svg width="68px" height="68px" viewBox="0 0 68 68" version="1.1" xmlns="http://www.w3.org/2000/svg" xmlns:xlink="http://www.w3.org/1999/xlink">
    <title>Fill 52</title>
    <g id="Experimentcollage" stroke="none" stroke-width="1" fill="none" fill-rule="evenodd">
        <g id="iPhone-8" transform="translate(-266.000000, -566.000000)" fill="#FFFFFF">
            <path d="M333.297327,633.296453 C332.001327,634.595453 331.056327,632.317453 329.222327,632.317453 C327.386327,632.317453 327.386327,633.464453 325.551327,633.464453 C323.716327,633.464453 323.716327,632.317453 321.881327,632.317453 C320.046327,632.317453 320.046327,633.464453 318.211327,633.464453 C316.375327,633.464453 316.375327,632.317453 314.539327,632.317453 C312.704327,632.317453 312.704327,633.464453 310.868327,633.464453 C309.033327,633.464453 309.033327,632.317453 307.196327,632.317453 C305.361327,632.317453 305.361327,633.464453 303.526327,633.464453 C301.693327,633.464453 301.693327,632.317453 299.859327,632.317453 C298.024327,632.317453 298.024327,633.464453 296.189327,633.464453 C294.353327,633.464453 294.353327,632.317453 292.517327,632.317453 C290.681327,632.317453 290.681327,633.464453 288.846327,633.464453 C287.010327,633.464453 287.010327,632.317453 285.174327,632.317453 C283.338327,632.317453 283.338327,633.464453 281.502327,633.464453 C279.667327,633.464453 279.667327,632.317453 277.831327,632.317453 C275.995327,632.317453 275.995327,633.464453 274.158327,633.464453 C272.318327,633.464453 272.318327,632.317453 270.482327,632.317453 C268.644327,632.317453 267.701327,634.595453 266.401327,633.297453 C265.102327,632.000453 267.379327,631.056453 267.379327,629.222453 C267.379327,627.386453 266.233327,627.386453 266.233327,625.551453 C266.233327,623.716453 267.379327,623.716453 267.379327,621.881453 C267.379327,620.046453 266.233327,620.046453 266.233327,618.210453 C266.233327,616.374453 267.379327,616.374453 267.379327,614.539453 C267.379327,612.703453 266.233327,612.703453 266.233327,610.868453 C266.233327,609.031453 267.379327,609.031453 267.379327,607.196453 C267.379327,605.360453 266.233327,605.360453 266.233327,603.525453 C266.233327,601.692453 267.379327,601.692453 267.379327,599.858453 C267.379327,598.023453 266.233327,598.023453 266.233327,596.189453 C266.233327,594.353453 267.379327,594.353453 267.379327,592.517453 C267.379327,590.681453 266.233327,590.681453 266.233327,588.845453 C266.233327,587.010453 267.379327,587.010453 267.379327,585.174453 C267.379327,583.338453 266.233327,583.338453 266.233327,581.501453 C266.233327,579.666453 267.379327,579.666453 267.379327,577.831453 C267.379327,575.994453 266.233327,575.994453 266.233327,574.157453 C266.233327,572.318453 267.379327,572.318453 267.379327,570.482453 C267.379327,568.643453 265.101327,567.701453 266.400327,566.400453 C267.695327,565.102453 268.640327,567.378453 270.475327,567.378453 C272.310327,567.378453 272.310327,566.232453 274.146327,566.232453 C275.981327,566.232453 275.981327,567.378453 277.816327,567.378453 C279.651327,567.378453 279.651327,566.232453 281.485327,566.232453 C283.321327,566.232453 283.321327,567.378453 285.156327,567.378453 C286.993327,567.378453 286.993327,566.232453 288.828327,566.232453 C290.664327,566.232453 290.664327,567.378453 292.499327,567.378453 C294.335327,567.378453 294.335327,566.232453 296.171327,566.232453 C298.005327,566.232453 298.005327,567.378453 299.839327,567.378453 C301.673327,567.378453 301.673327,566.232453 303.508327,566.232453 C305.344327,566.232453 305.344327,567.378453 307.180327,567.378453 C309.015327,567.378453 309.015327,566.232453 310.851327,566.232453 C312.687327,566.232453 312.687327,567.378453 314.523327,567.378453 C316.359327,567.378453 316.359327,566.232453 318.194327,566.232453 C320.029327,566.232453 320.029327,567.378453 321.865327,567.378453 C323.702327,567.378453 323.702327,566.232453 325.539327,566.232453 C327.377327,566.232453 327.377327,567.378453 329.215327,567.378453 C331.053327,567.378453 331.995327,565.101453 333.296327,566.400453 C334.595327,567.694453 332.318327,568.640453 332.318327,570.475453 C332.318327,572.310453 333.464327,572.310453 333.464327,574.146453 C333.464327,575.981453 332.318327,575.981453 332.318327,577.816453 C332.318327,579.650453 333.464327,579.650453 333.464327,581.484453 C333.464327,583.320453 332.318327,583.320453 332.318327,585.156453 C332.318327,586.992453 333.464327,586.992453 333.464327,588.828453 C333.464327,590.663453 332.318327,590.663453 332.318327,592.499453 C332.318327,594.334453 333.464327,594.334453 333.464327,596.170453 C333.464327,598.004453 332.318327,598.004453 332.318327,599.838453 C332.318327,601.673453 333.464327,601.673453 333.464327,603.508453 C333.464327,605.344453 332.318327,605.344453 332.318327,607.180453 C332.318327,609.015453 333.464327,609.015453 333.464327,610.851453 C333.464327,612.687453 332.318327,612.687453 332.318327,614.523453 C332.318327,616.359453 333.464327,616.359453 333.464327,618.193453 C333.464327,620.028453 332.318327,620.028453 332.318327,621.864453 C332.318327,623.702453 333.464327,623.702453 333.464327,625.539453 C333.464327,627.377453 331.868327,627.584453 332.337327,629.360453 C332.896327,631.480453 334.595327,631.995453 333.297327,633.296453" id="Fill-52"></path>
        </g>
    </g>
</svg>